<?xml version="1.0" standalone="no"?><!-- Generator: Gravit.io --><svg xmlns="http://www.w3.org/2000/svg" xmlns:xlink="http://www.w3.org/1999/xlink" style="isolation:isolate" viewBox="0 0 473.51 137.48" width="473.51" height="137.48"><defs><clipPath id="_clipPath_jAyShkkftZfCE7OwCzw0IUpBqpFM7WKg"><rect width="473.51" height="137.48"/></clipPath></defs><g clip-path="url(#_clipPath_jAyShkkftZfCE7OwCzw0IUpBqpFM7WKg)"><g id="logo horizontal"><g id="g180"><path d=" M 199.389 43.686 C 199.389 44.665 198.899 45.155 197.919 45.155 L 187.254 45.155 C 186.305 45.155 185.827 44.665 185.827 43.686 L 185.827 41.251 L 179.363 41.251 L 179.363 51.325 L 192.335 51.325 C 193.119 51.325 193.617 51.431 193.826 51.642 C 194.035 51.85 194.141 52.35 194.141 53.131 L 194.141 62.159 C 194.141 62.886 194.029 63.377 193.805 63.629 C 193.554 63.853 193.063 63.965 192.335 63.965 L 179.363 63.965 L 179.363 74.546 L 183.393 74.546 C 184.205 74.546 184.694 74.637 184.861 74.817 C 185.029 74.998 185.115 75.509 185.115 76.347 L 185.115 85.21 C 185.115 86.047 185.029 86.558 184.861 86.743 C 184.694 86.923 184.205 87.014 183.393 87.014 L 160.006 87.014 C 159.194 87.014 158.693 86.915 158.497 86.719 C 158.299 86.525 158.202 86.022 158.202 85.21 L 158.202 76.347 C 158.202 75.538 158.299 75.035 158.497 74.839 C 158.693 74.645 159.194 74.546 160.006 74.546 L 162.694 74.546 L 162.694 40.495 L 160.006 40.495 C 159.223 40.495 158.727 40.389 158.517 40.181 C 158.307 39.97 158.202 39.473 158.202 38.691 L 158.202 29.749 C 158.202 28.962 158.313 28.481 158.538 28.295 C 158.761 28.115 159.251 28.025 160.006 28.025 L 197.919 28.025 C 198.899 28.025 199.389 28.517 199.389 29.493 L 199.389 43.686 Z " fill="rgb(53,74,94)"/></g><g id="g184"><path d=" M 281.345 71.019 C 281.345 69.17 280.924 67.883 280.085 67.155 C 279.048 66.233 277.061 65.769 274.124 65.769 L 271.478 65.769 L 271.478 75.845 L 274.752 75.845 C 279.148 75.845 281.345 74.235 281.345 71.019 Z  M 279.706 50.907 C 279.706 49.257 279.369 48.107 278.7 47.465 C 277.944 46.707 276.53 46.331 274.457 46.331 L 271.478 46.331 L 271.478 55.905 L 274.752 55.905 C 278.056 55.905 279.706 54.238 279.706 50.907 Z  M 295.368 71.691 C 295.368 75.077 294.373 78.129 292.386 80.842 C 290.342 83.642 287.7 85.418 284.452 86.175 C 281.989 86.735 278.6 87.014 274.292 87.014 L 254.346 87.014 C 253.341 87.014 252.766 86.735 252.626 86.175 C 252.572 85.981 252.542 85.658 252.542 85.21 L 252.542 77.65 C 252.542 76.897 252.652 76.407 252.878 76.181 C 253.102 75.957 253.593 75.845 254.346 75.845 L 256.572 75.845 L 256.572 46.834 L 254.346 46.834 C 253.341 46.834 252.766 46.569 252.626 46.041 C 252.572 45.817 252.542 45.511 252.542 45.118 L 252.542 37.381 C 252.542 36.462 252.78 35.931 253.256 35.793 C 253.481 35.71 253.844 35.665 254.346 35.665 L 273.618 35.665 C 277.426 35.665 280.097 35.793 281.637 36.043 C 284.66 36.493 287.096 37.514 288.944 39.107 C 292.024 41.795 293.562 45.322 293.562 49.691 C 293.562 54.279 291.504 57.697 287.389 59.934 C 292.706 62.342 295.368 66.259 295.368 71.691 Z " fill="rgb(53,74,94)"/></g><g id="g188"><path d=" M 327.233 51.324 C 327.233 48.053 325.285 46.412 321.4 46.412 L 319.342 46.412 L 319.342 56.827 L 321.064 56.827 C 323.358 56.827 324.957 56.412 325.869 55.587 C 326.78 54.761 327.233 53.343 327.233 51.324 Z  M 344.616 85.209 C 344.616 85.991 344.556 86.469 344.446 86.636 C 344.28 86.887 343.79 87.015 342.978 87.015 L 331.389 87.015 C 330.298 87.015 329.572 86.636 329.206 85.881 L 320.178 67.324 L 319.342 67.324 L 319.342 85.209 C 319.342 85.936 319.228 86.425 319.006 86.679 C 318.754 86.903 318.261 87.015 317.536 87.015 L 301.792 87.015 C 301.036 87.015 300.56 86.903 300.365 86.679 C 300.169 86.455 300.069 85.964 300.069 85.209 L 300.069 77.649 C 300.069 76.897 300.181 76.407 300.405 76.181 C 300.632 75.957 301.118 75.845 301.873 75.845 L 304.098 75.845 L 304.098 46.835 L 301.873 46.835 C 300.869 46.835 300.294 46.569 300.153 46.04 C 300.097 45.816 300.069 45.512 300.069 45.119 L 300.069 37.381 C 300.069 36.463 300.334 35.931 300.869 35.793 C 301.093 35.709 301.456 35.665 301.96 35.665 L 321.145 35.665 C 328.394 35.665 333.43 36.84 336.26 39.193 C 339.536 41.909 341.173 45.701 341.173 50.572 C 341.173 56.871 338.597 61.655 333.446 64.931 L 340.249 75.845 L 342.809 75.845 C 343.818 75.845 344.392 76.113 344.53 76.644 C 344.588 76.868 344.616 77.204 344.616 77.649 L 344.616 85.209 Z " fill="rgb(53,74,94)"/></g><g id="g192"><path d=" M 372.744 85.209 C 372.744 85.964 372.634 86.455 372.408 86.679 C 372.184 86.903 371.697 87.015 370.941 87.015 L 350.369 87.015 C 349.358 87.015 348.785 86.736 348.648 86.176 C 348.588 85.98 348.561 85.657 348.561 85.209 L 348.561 77.649 C 348.561 76.897 348.676 76.407 348.897 76.181 C 349.121 75.957 349.613 75.845 350.369 75.845 L 352.804 75.845 L 352.804 46.961 L 350.369 46.961 C 349.358 46.961 348.785 46.707 348.648 46.204 C 348.588 45.98 348.561 45.66 348.561 45.237 L 348.561 37.389 C 348.561 36.464 348.801 35.933 349.277 35.792 C 349.498 35.709 349.864 35.665 350.369 35.665 L 370.941 35.665 C 371.949 35.665 372.52 35.917 372.661 36.423 C 372.716 36.644 372.744 36.967 372.744 37.389 L 372.744 45.237 C 372.744 46.163 372.509 46.696 372.036 46.835 C 371.79 46.917 371.429 46.961 370.957 46.961 L 368.213 46.961 L 368.213 75.845 L 370.957 75.845 C 372.15 75.845 372.744 76.449 372.744 77.649 L 372.744 85.209 Z " fill="rgb(53,74,94)"/></g><g id="g196"><path d=" M 416.579 81.683 C 416.579 82.241 416.243 82.817 415.571 83.402 C 411.793 86.678 406.541 88.317 399.825 88.317 C 392.437 88.317 386.822 85.853 382.989 80.929 C 379.293 76.197 377.446 69.503 377.446 60.858 C 377.446 51.845 379.658 45.087 384.079 40.579 C 388.139 36.465 393.249 34.407 399.405 34.407 C 405.929 34.407 411.106 36.129 414.937 39.571 C 415.637 40.159 415.989 40.845 415.989 41.626 L 415.989 50.99 C 415.989 51.915 415.473 52.377 414.437 52.377 L 405.071 52.377 C 404.093 52.377 403.601 51.915 403.601 50.99 L 403.601 46.877 C 400.861 46.626 399.574 46.498 399.741 46.498 C 395.15 46.498 392.855 50.782 392.855 59.345 C 392.855 65.785 393.555 70.29 394.954 72.863 C 396.186 75.077 398.189 76.181 400.957 76.181 C 401.407 76.181 402.486 76.043 404.191 75.762 L 404.191 71.605 C 404.191 70.655 404.681 70.178 405.658 70.178 L 415.11 70.178 C 416.087 70.178 416.579 70.655 416.579 71.605 L 416.579 81.683 Z " fill="rgb(53,74,94)"/></g><g id="g200"><path d=" M 449.618 61.655 L 447.9 51.579 C 447.168 47.324 446.654 44.064 446.345 41.795 C 446.006 45.519 445.517 48.78 444.876 51.579 L 442.646 61.655 L 449.618 61.655 Z  M 473.509 85.545 C 473.509 86.524 472.99 87.015 471.957 87.015 L 457.178 87.015 C 456.478 87.015 456.034 86.939 455.853 86.783 C 455.668 86.628 455.485 86.217 455.285 85.545 L 452.012 73.243 L 440.761 73.243 L 437.236 85.545 C 437.04 86.245 436.856 86.665 436.686 86.805 C 436.52 86.944 436.097 87.015 435.428 87.015 L 421.574 87.015 C 420.9 87.015 420.493 86.903 420.353 86.679 C 420.217 86.455 420.146 86.076 420.146 85.545 L 420.146 75.931 C 420.146 75.007 420.618 74.545 421.574 74.545 L 423.837 74.545 L 438.533 29.493 C 438.842 28.516 439.473 28.024 440.425 28.024 L 453.228 28.024 C 453.928 28.024 454.378 28.103 454.569 28.256 C 454.769 28.409 454.978 28.821 455.204 29.493 L 469.9 74.545 L 471.957 74.545 C 472.99 74.545 473.509 75.007 473.509 75.931 L 473.509 85.545 Z " fill="rgb(53,74,94)"/></g><g id="g204"><path d=" M 171.499 109.332 C 171.499 106.985 171.269 105.37 170.806 104.49 C 170.25 103.444 169.173 102.922 167.573 102.922 L 166.453 102.922 L 166.453 116.329 L 167.611 116.329 C 169.307 116.329 170.406 115.758 170.909 114.621 C 171.299 113.75 171.499 111.988 171.499 109.332 Z  M 178.902 109.37 C 178.902 113.468 178.115 116.532 176.543 118.566 C 174.753 120.886 171.865 122.045 167.878 122.045 L 157.906 122.045 C 157.419 122.045 157.142 121.91 157.075 121.638 C 157.046 121.545 157.034 121.389 157.034 121.17 L 157.034 117.509 C 157.034 117.141 157.087 116.908 157.197 116.798 C 157.305 116.689 157.542 116.634 157.906 116.634 L 158.987 116.634 L 158.987 102.597 L 157.906 102.597 C 157.419 102.597 157.142 102.468 157.075 102.212 C 157.046 102.102 157.034 101.954 157.034 101.761 L 157.034 98.001 C 157.034 97.457 157.323 97.178 157.905 97.165 L 166.453 97.124 C 170.875 97.11 174.057 98.048 175.997 99.933 C 177.934 101.816 178.902 104.965 178.902 109.37 Z " fill="rgb(53,74,94)"/></g><g id="g208"><path d=" M 199.449 121.334 C 199.449 121.808 199.197 122.045 198.697 122.045 L 182.075 122.045 C 181.588 122.045 181.311 121.91 181.244 121.64 C 181.215 121.545 181.201 121.389 181.201 121.17 L 181.201 117.509 C 181.201 117.141 181.256 116.908 181.365 116.798 C 181.473 116.689 181.709 116.634 182.075 116.634 L 183.156 116.634 L 183.156 102.577 L 182.075 102.577 C 181.588 102.577 181.311 102.449 181.244 102.194 C 181.215 102.082 181.201 101.933 181.201 101.746 L 181.201 97.996 C 181.201 97.55 181.319 97.296 181.547 97.225 C 181.656 97.186 181.831 97.165 182.075 97.165 L 198.616 97.165 C 199.116 97.165 199.367 97.402 199.367 97.876 L 199.367 103.84 C 199.367 104.313 199.116 104.55 198.616 104.55 L 194.16 104.55 C 193.66 104.55 193.408 104.313 193.408 103.84 L 193.408 102.922 L 190.621 102.922 L 190.621 106.545 L 196.193 106.545 C 196.561 106.545 196.797 106.6 196.908 106.706 C 197.015 106.813 197.069 107.053 197.069 107.417 L 197.069 111.225 C 197.069 111.738 196.779 111.996 196.193 111.996 L 190.621 111.996 L 190.621 116.246 L 193.488 116.246 L 193.488 115.129 C 193.488 114.629 193.727 114.378 194.201 114.378 L 198.697 114.378 C 199.197 114.378 199.449 114.629 199.449 115.129 L 199.449 121.334 Z " fill="rgb(53,74,94)"/></g><g id="g212"><path d=" M 223.639 104.754 C 223.639 103.166 222.683 102.374 220.771 102.374 L 219.815 102.374 L 219.815 107.459 L 220.609 107.459 C 221.722 107.459 222.505 107.254 222.959 106.836 C 223.415 106.426 223.639 105.73 223.639 104.754 Z  M 230.274 104.39 C 230.274 106.907 229.417 108.948 227.709 110.502 C 226.001 112.056 223.727 112.83 220.891 112.83 L 219.815 112.83 L 219.815 116.634 L 221.482 116.634 C 221.971 116.634 222.25 116.764 222.318 117.022 C 222.343 117.131 222.359 117.292 222.359 117.508 L 222.359 121.171 C 222.359 121.538 222.318 121.775 222.238 121.884 C 222.155 121.991 221.93 122.046 221.565 122.046 L 211.229 122.046 C 210.866 122.046 210.633 121.991 210.539 121.884 C 210.443 121.775 210.397 121.538 210.397 121.171 L 210.397 117.508 C 210.397 117.142 210.451 116.907 210.558 116.798 C 210.666 116.688 210.905 116.634 211.273 116.634 L 212.347 116.634 L 212.347 102.576 L 211.273 102.576 C 210.783 102.576 210.503 102.448 210.435 102.194 C 210.41 102.082 210.397 101.934 210.397 101.746 L 210.397 97.996 C 210.397 97.551 210.526 97.295 210.783 97.226 C 210.891 97.186 211.069 97.166 211.311 97.166 L 220.609 97.166 C 224.122 97.166 226.562 97.735 227.933 98.874 C 229.491 100.163 230.274 102.002 230.274 104.39 Z " fill="rgb(53,74,94)"/></g><g id="g216"><path d=" M 245.306 104.754 C 245.306 103.166 244.363 102.374 242.478 102.374 L 241.481 102.374 L 241.481 107.418 L 242.314 107.418 C 243.426 107.418 244.202 107.22 244.645 106.819 C 245.087 106.42 245.306 105.73 245.306 104.754 Z  M 253.727 121.171 C 253.727 121.551 253.702 121.782 253.647 121.863 C 253.563 121.986 253.326 122.046 252.934 122.046 L 247.319 122.046 C 246.79 122.046 246.438 121.863 246.259 121.496 L 241.887 112.503 L 241.481 112.503 L 241.481 121.171 C 241.481 121.524 241.426 121.762 241.317 121.884 C 241.195 121.991 240.959 122.046 240.606 122.046 L 232.975 122.046 C 232.611 122.046 232.379 121.991 232.285 121.884 C 232.19 121.775 232.142 121.538 232.142 121.171 L 232.142 117.508 C 232.142 117.142 232.197 116.907 232.305 116.798 C 232.413 116.688 232.651 116.634 233.019 116.634 L 234.095 116.634 L 234.095 102.576 L 233.019 102.576 C 232.53 102.576 232.25 102.448 232.183 102.194 C 232.157 102.082 232.142 101.934 232.142 101.746 L 232.142 97.996 C 232.142 97.551 232.271 97.295 232.53 97.226 C 232.638 97.186 232.815 97.166 233.058 97.166 L 242.355 97.166 C 245.869 97.166 248.309 97.735 249.678 98.874 C 251.265 100.191 252.058 102.027 252.058 104.39 C 252.058 107.442 250.811 109.759 248.317 111.344 L 251.613 116.634 L 252.853 116.634 C 253.341 116.634 253.618 116.764 253.687 117.022 C 253.713 117.131 253.727 117.292 253.727 117.508 L 253.727 121.171 Z " fill="rgb(53,74,94)"/></g><g id="g220"><path d=" M 268.66 109.595 C 268.66 104.483 267.686 101.926 265.734 101.926 C 263.794 101.926 262.824 104.522 262.824 109.718 C 262.824 114.778 263.794 117.306 265.734 117.306 C 267.686 117.306 268.66 114.738 268.66 109.595 Z  M 276.248 109.29 C 276.248 118.215 272.715 122.679 265.65 122.679 C 258.734 122.679 255.275 118.215 255.275 109.29 C 255.275 105.819 255.939 103.01 257.267 100.866 C 259.031 97.994 261.871 96.556 265.794 96.556 C 272.764 96.556 276.248 100.8 276.248 109.29 Z " fill="rgb(53,74,94)"/></g><g id="g224"><path d=" M 299.909 112.465 C 299.909 112.91 299.67 113.137 299.196 113.137 L 298.484 113.137 L 298.484 119.462 C 298.484 119.762 298.22 120.105 297.69 120.498 C 296.81 121.165 295.569 121.702 293.969 122.107 C 292.476 122.489 291.012 122.678 289.572 122.678 C 282.345 122.678 278.73 118.241 278.73 109.371 C 278.73 105.003 279.801 101.73 281.944 99.546 C 283.91 97.553 286.386 96.555 289.369 96.555 C 292.95 96.555 295.642 97.369 297.446 98.995 C 297.838 99.363 298.038 99.689 298.038 99.973 L 298.038 104.593 C 298.038 105.041 297.772 105.262 297.244 105.262 L 292.708 105.262 C 292.205 105.262 291.953 105.041 291.953 104.593 L 291.953 102.454 C 291.452 102.293 290.725 102.213 289.774 102.213 C 288.785 102.213 287.981 102.678 287.356 103.613 C 286.582 104.741 286.196 106.415 286.196 108.639 C 286.196 111.937 286.516 114.181 287.152 115.374 C 287.709 116.402 288.698 116.921 290.124 116.921 C 290.502 116.921 291.012 116.853 291.649 116.717 L 291.649 113.137 L 289.82 113.137 C 289.437 113.137 289.189 113.087 289.074 112.993 C 288.96 112.897 288.901 112.667 288.901 112.301 L 288.901 108.842 C 288.901 108.503 288.964 108.274 289.085 108.153 C 289.209 108.03 289.45 107.967 289.82 107.967 L 299.196 107.967 C 299.67 107.967 299.909 108.219 299.909 108.719 L 299.909 112.465 Z " fill="rgb(53,74,94)"/></g><g id="g228"><path d=" M 315.611 104.754 C 315.611 103.166 314.669 102.374 312.785 102.374 L 311.788 102.374 L 311.788 107.418 L 312.621 107.418 C 313.735 107.418 314.512 107.22 314.951 106.819 C 315.392 106.42 315.611 105.73 315.611 104.754 Z  M 324.035 121.171 C 324.035 121.551 324.007 121.782 323.952 121.863 C 323.873 121.986 323.637 122.046 323.241 122.046 L 317.627 122.046 C 317.097 122.046 316.747 121.863 316.569 121.496 L 312.196 112.503 L 311.788 112.503 L 311.788 121.171 C 311.788 121.524 311.735 121.762 311.625 121.884 C 311.504 121.991 311.267 122.046 310.913 122.046 L 303.285 122.046 C 302.917 122.046 302.688 121.991 302.593 121.884 C 302.499 121.775 302.452 121.538 302.452 121.171 L 302.452 117.508 C 302.452 117.142 302.507 116.907 302.613 116.798 C 302.72 116.688 302.96 116.634 303.324 116.634 L 304.405 116.634 L 304.405 102.576 L 303.324 102.576 C 302.837 102.576 302.559 102.448 302.492 102.194 C 302.465 102.082 302.452 101.934 302.452 101.746 L 302.452 97.996 C 302.452 97.551 302.58 97.295 302.837 97.226 C 302.945 97.186 303.121 97.166 303.365 97.166 L 312.663 97.166 C 316.176 97.166 318.616 97.735 319.988 98.874 C 321.575 100.191 322.368 102.027 322.368 104.39 C 322.368 107.442 321.119 109.759 318.624 111.344 L 321.917 116.634 L 323.157 116.634 C 323.647 116.634 323.925 116.764 323.996 117.022 C 324.023 117.131 324.035 117.292 324.035 117.508 L 324.035 121.171 Z " fill="rgb(53,74,94)"/></g><g id="g232"><path d=" M 337.319 111.264 L 336.57 107.136 C 336.338 105.832 336.134 104.597 335.958 103.433 C 335.822 104.571 335.598 105.819 335.286 107.176 L 334.327 111.264 L 337.319 111.264 Z  M 347.819 121.335 C 347.819 121.808 347.576 122.045 347.082 122.045 L 340.658 122.045 C 340.168 122.045 339.863 121.824 339.738 121.373 L 338.418 116.291 L 333.494 116.291 L 332.032 121.373 C 331.95 121.685 331.868 121.876 331.791 121.944 C 331.702 122.012 331.496 122.045 331.155 122.045 L 325.152 122.045 C 324.83 122.045 324.628 121.991 324.556 121.884 C 324.48 121.775 324.442 121.592 324.442 121.335 L 324.442 117.305 C 324.442 116.857 324.68 116.633 325.152 116.633 L 326.068 116.633 L 332.496 97.876 C 332.66 97.403 332.967 97.165 333.412 97.165 L 338.824 97.165 C 339.33 97.165 339.66 97.403 339.822 97.876 L 346.251 116.633 L 347.082 116.633 C 347.576 116.633 347.819 116.857 347.819 117.305 L 347.819 121.335 Z " fill="rgb(53,74,94)"/></g><g id="g236"><path d=" M 376.277 121.17 C 376.277 121.512 376.22 121.741 376.105 121.864 C 375.988 121.985 375.744 122.045 375.363 122.045 L 368.751 122.045 C 368.032 122.045 367.668 121.753 367.652 121.17 L 367.529 113.053 C 367.515 112.009 367.605 110.118 367.796 107.378 L 365.253 116.329 C 365.157 116.642 365.067 116.826 364.977 116.881 C 364.887 116.933 364.676 116.96 364.337 116.96 L 360.963 116.96 C 360.605 116.96 360.379 116.928 360.277 116.868 C 360.176 116.809 360.084 116.613 360.004 116.29 L 358.905 112.14 C 358.689 111.121 358.319 109.509 357.785 107.296 C 357.856 110.266 357.879 112.189 357.868 113.053 L 357.785 121.17 C 357.785 121.605 357.673 121.87 357.441 121.965 C 357.321 122.02 357.129 122.045 356.871 122.045 L 350.119 122.045 C 349.749 122.045 349.52 121.99 349.425 121.884 C 349.332 121.774 349.285 121.537 349.285 121.17 L 349.285 117.509 C 349.285 117.142 349.332 116.908 349.425 116.798 C 349.52 116.689 349.749 116.634 350.119 116.634 L 350.868 116.634 L 351.783 102.577 L 350.911 102.577 C 350.423 102.577 350.144 102.449 350.075 102.194 C 350.048 102.082 350.035 101.933 350.035 101.746 L 350.035 97.996 C 350.035 97.55 350.149 97.296 350.384 97.225 C 350.488 97.186 350.665 97.165 350.911 97.165 L 358.741 97.165 C 359.244 97.165 359.567 97.392 359.699 97.837 L 361.916 104.876 C 362.015 105.201 362.313 106.342 362.829 108.293 C 363.199 106.868 363.515 105.744 363.788 104.916 L 366.087 97.837 C 366.22 97.392 366.553 97.165 367.084 97.165 L 374.613 97.165 C 375.029 97.165 375.291 97.225 375.384 97.348 C 375.48 97.47 375.528 97.686 375.528 97.996 L 375.528 101.746 C 375.528 102.042 375.485 102.246 375.408 102.356 C 375.283 102.501 375.02 102.577 374.613 102.577 L 373.736 102.577 L 374.529 116.634 L 375.363 116.634 C 375.759 116.634 376.009 116.698 376.113 116.826 C 376.223 116.957 376.277 117.186 376.277 117.509 L 376.277 121.17 Z " fill="rgb(53,74,94)"/></g><g id="g240"><path d=" M 390.621 111.264 L 389.869 107.136 C 389.637 105.832 389.433 104.597 389.257 103.433 C 389.121 104.571 388.897 105.819 388.585 107.176 L 387.632 111.264 L 390.621 111.264 Z  M 401.118 121.335 C 401.118 121.808 400.876 122.045 400.386 122.045 L 393.957 122.045 C 393.47 122.045 393.162 121.824 393.042 121.373 L 391.72 116.291 L 386.798 116.291 L 385.332 121.373 C 385.254 121.685 385.17 121.876 385.09 121.944 C 385.006 122.012 384.796 122.045 384.46 122.045 L 378.457 122.045 C 378.132 122.045 377.933 121.991 377.858 121.884 C 377.78 121.775 377.746 121.592 377.746 121.335 L 377.746 117.305 C 377.746 116.857 377.981 116.633 378.457 116.633 L 379.37 116.633 L 385.801 97.876 C 385.96 97.403 386.266 97.165 386.714 97.165 L 392.129 97.165 C 392.629 97.165 392.96 97.403 393.124 97.876 L 399.55 116.633 L 400.386 116.633 C 400.876 116.633 401.118 116.857 401.118 117.305 L 401.118 121.335 Z " fill="rgb(53,74,94)"/></g><g id="g244"><path d=" M 417.069 109.332 C 417.069 106.985 416.837 105.37 416.376 104.49 C 415.817 103.444 414.741 102.922 413.142 102.922 L 412.025 102.922 L 412.025 116.329 L 413.181 116.329 C 414.878 116.329 415.978 115.758 416.478 114.621 C 416.869 113.75 417.069 111.988 417.069 109.332 Z  M 424.47 109.37 C 424.47 113.468 423.686 116.532 422.113 118.566 C 420.321 120.886 417.436 122.045 413.446 122.045 L 403.476 122.045 C 402.99 122.045 402.712 121.91 402.642 121.638 C 402.616 121.545 402.602 121.389 402.602 121.17 L 402.602 117.509 C 402.602 117.141 402.657 116.908 402.766 116.798 C 402.874 116.689 403.113 116.634 403.476 116.634 L 404.556 116.634 L 404.556 102.597 L 403.476 102.597 C 402.99 102.597 402.712 102.468 402.642 102.212 C 402.616 102.102 402.602 101.954 402.602 101.761 L 402.602 98.001 C 402.602 97.457 402.892 97.178 403.473 97.165 L 412.025 97.124 C 416.444 97.11 419.626 98.048 421.566 99.933 C 423.506 101.816 424.47 104.965 424.47 109.37 Z " fill="rgb(53,74,94)"/></g><g id="g248"><path d=" M 440.342 109.595 C 440.342 104.483 439.366 101.926 437.416 101.926 C 435.47 101.926 434.506 104.522 434.506 109.718 C 434.506 114.778 435.47 117.306 437.416 117.306 C 439.366 117.306 440.342 114.738 440.342 109.595 Z  M 447.93 109.29 C 447.93 118.215 444.394 122.679 437.329 122.679 C 430.416 122.679 426.954 118.215 426.954 109.29 C 426.954 105.819 427.618 103.01 428.949 100.866 C 430.712 97.994 433.55 96.556 437.473 96.556 C 444.446 96.556 447.93 100.8 447.93 109.29 Z " fill="rgb(53,74,94)"/></g><g id="g252"><path d=" M 463.368 104.754 C 463.368 103.166 462.426 102.374 460.54 102.374 L 459.543 102.374 L 459.543 107.418 L 460.382 107.418 C 461.491 107.418 462.27 107.22 462.707 106.819 C 463.15 106.42 463.368 105.73 463.368 104.754 Z  M 471.79 121.171 C 471.79 121.551 471.764 121.782 471.712 121.863 C 471.631 121.986 471.392 122.046 470.999 122.046 L 465.387 122.046 C 464.855 122.046 464.502 121.863 464.327 121.496 L 459.954 112.503 L 459.543 112.503 L 459.543 121.171 C 459.543 121.524 459.494 121.762 459.384 121.884 C 459.259 121.991 459.024 122.046 458.668 122.046 L 451.043 122.046 C 450.675 122.046 450.444 121.991 450.35 121.884 C 450.256 121.775 450.207 121.538 450.207 121.171 L 450.207 117.508 C 450.207 117.142 450.262 116.907 450.371 116.798 C 450.48 116.688 450.718 116.634 451.082 116.634 L 452.16 116.634 L 452.16 102.576 L 451.082 102.576 C 450.592 102.576 450.316 102.448 450.248 102.194 C 450.223 102.082 450.207 101.934 450.207 101.746 L 450.207 97.996 C 450.207 97.551 450.335 97.295 450.592 97.226 C 450.702 97.186 450.879 97.166 451.123 97.166 L 460.42 97.166 C 463.931 97.166 466.376 97.735 467.743 98.874 C 469.332 100.191 470.126 102.027 470.126 104.39 C 470.126 107.442 468.879 109.759 466.379 111.344 L 469.675 116.634 L 470.92 116.634 C 471.404 116.634 471.68 116.764 471.751 117.022 C 471.78 117.131 471.79 117.292 471.79 117.508 L 471.79 121.171 Z " fill="rgb(53,74,94)"/></g><g id="g256"><path d=" M 221.641 64.762 L 223.613 56.324 C 224.259 53.522 224.721 50.95 225 48.598 C 225.364 51.004 225.784 53.551 226.259 56.238 L 227.813 64.762 L 221.641 64.762 Z  M 247.967 75.846 L 246.244 75.846 L 232.977 37.136 C 232.849 36.762 232.653 36.48 232.42 36.246 L 223.651 39.579 C 222.941 39.847 222.413 39.636 222.065 38.944 L 220.389 35.666 L 219.752 35.666 C 218.828 35.666 218.197 36.158 217.861 37.136 L 204.595 75.846 L 202.707 75.846 C 201.727 75.846 201.236 76.308 201.236 77.234 L 201.236 85.546 C 201.236 86.076 201.312 86.455 201.469 86.678 C 201.621 86.902 202.036 87.014 202.707 87.014 L 215.093 87.014 C 215.791 87.014 216.225 86.944 216.393 86.806 C 216.561 86.666 216.728 86.272 216.896 85.628 L 219.92 75.131 L 230.083 75.131 L 232.809 85.628 C 233.061 86.551 233.692 87.014 234.7 87.014 L 247.967 87.014 C 248.973 87.014 249.477 86.524 249.477 85.546 L 249.477 77.234 C 249.477 76.308 248.973 75.846 247.967 75.846 Z " fill="rgb(53,74,94)"/></g><g id="g260"><path d=" M 238.251 31.535 C 238.423 31.879 238.509 32.15 238.509 32.34 C 238.509 32.668 238.202 32.947 237.586 33.175 L 223.779 38.42 C 223.07 38.691 222.542 38.48 222.195 37.787 L 220.235 33.954 C 220.043 33.568 219.946 33.3 219.946 33.147 C 219.946 32.899 220.215 32.611 220.755 32.283 L 233.351 24.616 C 233.774 24.347 234.061 24.212 234.215 24.212 C 234.446 24.212 234.703 24.499 234.994 25.076 L 238.251 31.535 Z " fill="rgb(53,74,94)"/></g><g id="g264"><path d=" M 68.113 13.449 L 69.78 13.449 L 65.848 17.381 L 69.865 21.398 C 71.385 22.92 73.851 22.92 75.369 21.398 L 76.549 20.217 L 76.549 25.777 L 82.227 25.777 C 84.376 25.777 86.12 24.033 86.12 21.884 L 86.12 20.218 L 90.053 24.148 L 94.068 20.136 C 95.587 18.613 95.587 16.148 94.065 14.628 L 93.452 14.013 C 91.568 13.161 89.635 12.404 87.653 11.748 C 86.505 14.09 84.121 15.718 81.336 15.718 C 77.539 15.718 74.468 12.716 74.309 8.957 C 72.475 8.789 70.621 8.692 68.745 8.692 C 67.221 8.692 65.716 8.766 64.221 8.878 L 64.221 9.558 C 64.219 11.708 65.965 13.452 68.113 13.449 Z " fill="rgb(53,74,94)"/></g><g id="g268"><path d=" M 75.749 67.176 L 80.192 65.27 L 80.192 65.249 L 75.749 63.341 L 75.749 62.074 L 81.499 64.708 L 81.499 65.81 L 75.749 68.444 L 75.749 67.176 Z  M 71.801 67.161 L 73.843 60.241 L 75.055 60.241 L 72.547 68.733 C 72.787 69.134 73.055 69.461 73.372 69.672 C 74.316 70.301 75.703 70.434 77.759 70.4 C 79.476 70.37 81.34 70.43 82.116 69.688 C 82.769 69.06 83.407 67.126 83.961 65.377 C 84.719 62.996 85.083 61.554 84.295 60.832 C 83.348 59.962 80.848 59.818 77.895 59.782 C 74.944 59.742 71.055 60.612 70.541 61.773 C 70.149 62.648 70.767 64.557 71.347 66.013 C 71.504 66.409 71.653 66.793 71.801 67.161 Z " fill="rgb(53,74,94)"/></g><g id="g272"><path d=" M 46.761 61.588 C 46.68 61.111 46.604 60.63 46.536 60.15 C 46.604 60.63 46.68 61.111 46.761 61.588 Z  M 46.79 61.755 C 46.79 61.751 46.789 61.747 46.789 61.744 C 46.789 61.747 46.79 61.751 46.79 61.755 Z  M 48.442 59.25 C 49.857 58.867 54.166 57.56 60.804 58.534 C 66.333 59.342 64.94 61.179 67.212 61.264 L 67.556 61.264 C 69.83 61.179 68.436 59.342 73.964 58.534 C 80.604 57.56 84.912 58.867 86.328 59.25 C 87.742 59.632 87.861 59.322 87.858 60.116 C 87.854 60.906 87.928 61.547 87.242 61.547 C 86.558 61.547 86.558 61.547 85.486 64.899 C 84.204 68.904 83.861 70.032 82.614 70.967 C 81.116 72.095 74.784 72.091 72.736 70.859 C 70.17 69.316 70.513 63.539 67.433 63.448 L 67.338 63.448 C 64.257 63.539 64.594 69.316 62.033 70.859 C 59.985 72.091 53.656 72.095 52.154 70.967 C 50.909 70.032 50.566 68.904 49.286 64.899 C 48.213 61.547 48.213 61.547 47.528 61.547 C 46.842 61.547 46.916 60.906 46.912 60.116 C 46.906 59.322 47.028 59.632 48.442 59.25 Z  M 88.544 60.764 C 88.532 60.868 88.517 60.97 88.505 61.072 C 88.517 60.97 88.532 60.868 88.544 60.764 Z  M 88.637 59.962 C 88.617 60.134 88.6 60.307 88.578 60.478 C 88.6 60.307 88.617 60.134 88.637 59.962 Z  M 88.668 59.655 C 88.668 59.65 88.668 59.643 88.67 59.636 C 88.668 59.643 88.668 59.65 88.668 59.655 C 88.668 59.663 88.668 59.672 88.665 59.678 C 88.665 59.682 88.664 59.687 88.664 59.692 C 88.664 59.679 88.666 59.667 88.668 59.655 Z  M 40.361 52.927 C 40.358 56.319 43.053 59.062 46.412 59.184 C 46.418 59.235 46.422 59.286 46.429 59.339 L 45.869 59.311 C 44.848 59.564 44.377 61.448 44.516 64.031 L 42.99 65.559 L 45.022 67.59 C 45.072 67.815 45.122 68.038 45.178 68.264 C 46.256 72.572 48.23 75.787 49.718 75.827 C 50.637 80.896 52.145 85.58 54.732 88.164 C 61.121 94.554 48.341 100.943 48.341 100.943 C 48.341 100.943 48.061 101.056 47.614 101.238 C 53.285 105.752 60.132 108.4 67.509 108.4 C 74.888 108.4 81.734 105.752 87.408 101.238 C 86.96 101.056 86.68 100.943 86.68 100.943 C 86.68 100.943 73.901 94.554 80.29 88.164 C 82.874 85.58 84.382 80.896 85.3 75.827 C 86.792 75.787 88.765 72.572 89.841 68.264 C 89.869 68.155 89.889 68.047 89.917 67.938 C 90.242 67.14 90.388 66.292 90.372 65.446 C 90.794 62.155 90.354 59.611 89.156 59.311 L 88.701 59.331 C 88.704 59.288 88.706 59.25 88.712 59.21 L 95.617 59.21 L 95.612 50.044 C 95.612 46.575 92.798 43.759 89.326 43.756 L 86.638 43.756 L 92.984 37.41 L 86.501 30.928 C 84.05 28.476 80.068 28.476 77.613 30.928 L 76.434 32.106 C 76.202 32.126 75.961 32.15 75.713 32.172 L 75.713 23.854 L 66.549 23.854 C 63.08 23.854 60.261 26.67 60.261 30.139 L 60.261 32.838 L 53.914 26.484 L 47.432 32.967 C 44.98 35.42 44.98 39.398 47.432 41.856 L 49.34 43.759 L 40.358 43.759 L 40.361 52.927 Z " fill="rgb(53,74,94)"/></g><g id="g276"><path d=" M 88.668 59.655 C 88.667 59.667 88.664 59.68 88.664 59.692 C 88.664 59.687 88.665 59.683 88.665 59.679 C 88.668 59.672 88.668 59.663 88.668 59.655 Z " fill="rgb(53,74,94)"/></g><g id="g280"><path d=" M 55.788 64.698 L 60.898 62.324 L 60.898 63.454 L 57.035 65.147 L 57.035 65.167 L 60.898 66.858 L 60.898 67.988 L 55.788 65.614 L 55.788 64.698 Z  M 52.651 69.687 C 53.428 70.431 55.291 70.37 57.011 70.399 C 59.068 70.435 60.455 70.3 61.398 69.671 C 62.287 69.079 62.782 67.626 63.424 66.012 C 64.004 64.558 64.619 62.648 64.228 61.774 C 63.715 60.612 59.826 59.742 56.875 59.782 C 53.922 59.819 51.426 59.962 50.478 60.832 C 49.686 61.555 50.051 62.996 50.808 65.378 C 51.364 67.126 52 69.059 52.651 69.687 Z " fill="rgb(53,74,94)"/></g><g id="g284"><path d=" M 89.394 103.867 C 82.885 109.055 75.241 111.799 67.301 111.799 C 59.364 111.799 51.72 109.055 45.209 103.867 L 43.696 102.662 C 38.897 104.704 31.245 108.116 26.201 111.115 C 37.074 122.031 52.12 128.788 68.745 128.788 C 84.804 128.788 99.377 122.472 110.15 112.206 C 105.306 108.979 96.298 104.956 90.906 102.662 L 89.394 103.867 Z " fill="rgb(0,159,227)"/></g><g id="g288"><path d=" M 50.477 60.832 C 51.425 59.962 53.921 59.818 56.876 59.782 C 59.825 59.742 63.714 60.612 64.228 61.773 C 64.618 62.648 64.004 64.557 63.424 66.013 C 62.782 67.626 62.286 69.08 61.397 69.672 C 60.454 70.301 59.069 70.434 57.01 70.4 C 55.292 70.369 53.428 70.43 52.652 69.688 C 52 69.06 51.364 67.126 50.808 65.377 C 50.052 62.996 49.686 61.554 50.477 60.832 Z  M 70.541 61.773 C 71.054 60.612 74.944 59.742 77.894 59.782 C 80.848 59.818 83.348 59.962 84.294 60.832 C 85.082 61.554 84.718 62.996 83.961 65.377 C 83.406 67.126 82.769 69.06 82.116 69.688 C 81.34 70.43 79.477 70.369 77.758 70.4 C 75.702 70.434 74.316 70.301 73.372 69.672 C 73.054 69.461 72.786 69.134 72.546 68.733 L 72.489 68.922 L 71.281 68.922 L 71.801 67.161 C 71.653 66.793 71.505 66.409 71.346 66.013 C 70.766 64.557 70.149 62.648 70.541 61.773 Z  M 47.528 61.546 C 48.213 61.546 48.213 61.546 49.285 64.9 C 50.566 68.905 50.909 70.032 52.154 70.968 C 53.656 72.094 59.985 72.09 62.033 70.86 C 64.594 69.316 64.257 63.538 67.338 63.448 L 67.433 63.448 C 70.513 63.538 70.17 69.316 72.736 70.86 C 74.782 72.09 81.116 72.094 82.614 70.968 C 83.861 70.032 84.204 68.905 85.486 64.9 C 86.558 61.546 86.558 61.546 87.242 61.546 C 87.926 61.546 87.854 60.906 87.858 60.116 C 87.861 59.321 87.742 59.633 86.328 59.249 C 84.912 58.866 80.604 57.561 73.964 58.533 C 68.436 59.342 69.83 61.18 67.556 61.264 L 67.212 61.264 C 64.94 61.18 66.333 59.342 60.804 58.533 C 54.166 57.561 49.857 58.866 48.442 59.249 C 47.028 59.633 46.906 59.321 46.912 60.116 C 46.916 60.906 46.842 61.546 47.528 61.546 Z " fill="rgb(255,255,255)"/></g><g id="g292"><path d=" M 60.898 66.858 L 57.035 65.166 L 57.035 65.147 L 60.898 63.454 L 60.898 62.324 L 55.788 64.698 L 55.788 65.612 L 60.898 67.988 L 60.898 66.858 Z " fill="rgb(255,255,255)"/></g><g id="g296"><path d=" M 73.843 60.241 L 71.8 67.161 C 72.04 67.751 72.278 68.29 72.546 68.733 L 75.054 60.241 L 73.843 60.241 Z " fill="rgb(255,255,255)"/></g><g id="g300"><path d=" M 81.498 64.708 L 75.749 62.073 L 75.749 63.341 L 80.193 65.248 L 80.193 65.271 L 75.749 67.176 L 75.749 68.444 L 81.498 65.809 L 81.498 64.708 Z " fill="rgb(255,255,255)"/></g><g id="g304"><path d=" M 125.855 38.819 L 130.942 33.733 L 114.806 17.604 C 111.183 13.976 106.215 12.523 101.498 13.207 C 111.81 19.3 120.271 28.183 125.855 38.819 Z " fill="rgb(53,74,94)"/></g><g id="g308"><path d=" M 68.745 4.265 C 75.439 4.265 81.895 5.287 87.966 7.18 L 87.966 -0.001 L 65.163 -0.001 C 60.038 -0.001 55.501 2.477 52.649 6.291 C 57.795 4.968 63.189 4.265 68.745 4.265 Z " fill="rgb(53,74,94)"/></g><g id="g312"><path d=" M 133.221 68.741 C 133.221 75.434 132.2 81.89 130.305 87.962 L 137.489 87.962 L 137.476 65.158 C 137.476 60.046 135.003 55.513 131.197 52.659 C 132.519 57.799 133.221 63.187 133.221 68.741 Z " fill="rgb(53,74,94)"/></g><g id="g316"><path d=" M 38.814 11.636 L 33.722 6.544 L 17.601 22.674 C 13.968 26.306 12.513 31.278 13.206 36 C 19.298 25.687 28.18 17.222 38.814 11.636 Z " fill="rgb(53,74,94)"/></g><g id="g320"><path d=" M 68.745 133.215 C 62.051 133.215 55.595 132.193 49.526 130.299 L 49.526 137.481 L 72.338 137.481 C 77.458 137.481 81.997 135.003 84.849 131.187 C 79.702 132.511 74.305 133.215 68.745 133.215 Z " fill="rgb(53,74,94)"/></g><g id="g324"><path d=" M 98.67 125.847 L 103.77 130.943 L 119.894 114.819 C 123.526 111.185 124.978 106.205 124.286 101.482 C 118.19 111.794 109.309 120.262 98.67 125.847 Z " fill="rgb(53,74,94)"/></g><g id="g328"><path d=" M 11.639 98.668 L 6.546 103.764 L 22.677 119.894 C 26.309 123.529 31.293 124.98 36.018 124.288 C 25.698 118.193 17.229 109.308 11.639 98.668 Z " fill="rgb(53,74,94)"/></g><g id="g332"><path d=" M 4.27 68.741 C 4.27 62.049 5.292 55.595 7.184 49.526 L 0.001 49.526 L 0.006 72.335 C 0.004 77.463 2.486 81.999 6.298 84.849 C 4.974 79.699 4.27 74.303 4.27 68.741 Z " fill="rgb(53,74,94)"/></g><g id="g336"><path d=" M 68.745 10.653 C 36.717 10.653 10.658 36.711 10.658 68.74 C 10.658 100.768 36.717 126.825 68.745 126.825 C 100.774 126.825 126.83 100.768 126.83 68.74 C 126.83 36.711 100.774 10.653 68.745 10.653 Z  M 68.745 130.751 C 34.551 130.751 6.733 102.933 6.733 68.74 C 6.733 34.547 34.551 6.728 68.745 6.728 C 102.939 6.728 130.755 34.547 130.755 68.74 C 130.755 102.933 102.939 130.751 68.745 130.751 Z " fill="rgb(0,159,227)"/></g></g></g></svg>